<svg width="120" height="120" viewBox="0 0 120 120" fill="none" xmlns="http://www.w3.org/2000/svg">
<path fill-rule="evenodd" clip-rule="evenodd" d="M81.2925 50.9637C78.315 50.9637 75.6388 52.2725 73.8163 54.3375C72.7888 55.5025 72.9 57.28 74.0638 58.3075C75.2288 59.335 77.0063 59.225 78.0338 58.06C78.8338 57.1537 79.995 56.5887 81.2925 56.5887H88.4475C90.845 56.5887 92.79 58.5337 92.79 60.9325V85.975C92.79 88.3737 90.845 90.3175 88.4475 90.3175H81.2925C79.995 90.3175 78.8338 89.7537 78.0338 88.8462C77.0063 87.6825 75.2288 87.5712 74.0638 88.5987C72.9 89.6275 72.7888 91.405 73.8163 92.5687C75.6388 94.6337 78.315 95.9425 81.2925 95.9425H88.4475C93.9525 95.9425 98.415 91.48 98.415 85.975V60.9325C98.415 55.4262 93.9525 50.9637 88.4475 50.9637H81.2925ZM74.6275 82.9412L82.1275 75.4412C83.2263 74.3437 83.2263 72.5625 82.1275 71.465L74.6275 63.965C73.53 62.8662 71.7488 62.8662 70.65 63.965C69.5525 65.0625 69.5525 66.8437 70.65 67.9412L73.3488 70.64H59.515C57.9613 70.64 56.7025 71.9 56.7025 73.4525C56.7025 75.0062 57.9613 76.265 59.515 76.265H73.3488L70.65 78.965C69.5525 80.0625 69.5525 81.8437 70.65 82.9412C71.7488 84.04 73.53 84.04 74.6275 82.9412Z" fill="#4B5351"/>
<mask id="mask0_2593_47" style="mask-type:luminance" maskUnits="userSpaceOnUse" x="21" y="12" width="58" height="82">
<path d="M21.12 12H78.08V93.76H21.12V12Z" fill="white"/>
</mask>
<g mask="url(#mask0_2593_47)">
<path fill-rule="evenodd" clip-rule="evenodd" d="M38.4975 31.745C38.4975 20.8725 47.3125 12.0575 58.185 12.0575C69.0588 12.0575 77.8725 20.8725 77.8725 31.745C77.8725 42.6187 69.0588 51.4325 58.185 51.4325C47.3125 51.4325 38.4975 42.6187 38.4975 31.745ZM24.6875 67.845C37.7075 60.925 52.3475 58.3375 66.5788 60.0825C65.2288 61.475 64.4538 63.22 64.2538 65.015H59.5138C54.855 65.015 51.0763 68.7937 51.0763 73.4525C51.0763 78.1125 54.855 81.89 59.5138 81.89H64.2538C64.4575 83.7275 65.265 85.51 66.6725 86.9187C67.07 87.3162 67.4963 87.665 67.945 87.9662C67.315 89.8037 67.3325 91.825 68.0213 93.6662H27.9513C24.3263 93.6662 21.3888 90.7275 21.3888 87.1037V73.3337C21.3888 71.035 22.6575 68.9237 24.6875 67.845Z" fill="#CF737D"/>
</g>
<mask id="mask1_2593_47" style="mask-type:luminance" maskUnits="userSpaceOnUse" x="21" y="12" width="38" height="82">
<path d="M21.12 12H58.56V93.76H21.12V12Z" fill="white"/>
</mask>
<g mask="url(#mask1_2593_47)">
<path fill-rule="evenodd" clip-rule="evenodd" d="M58.2425 81.795V93.6662H27.95C24.3262 93.6662 21.3875 90.7275 21.3875 87.1037V73.3337C21.3875 71.035 22.6575 68.9237 24.6875 67.845C35.175 62.2712 46.7137 59.5087 58.2437 59.5562V65.1112C54.1862 65.7237 51.0762 69.225 51.0762 73.4525C51.0762 77.6812 54.1862 81.1825 58.2437 81.795H58.2425ZM58.2425 12.0587V51.4325C58.2237 51.4325 58.205 51.4325 58.185 51.4325C47.3125 51.4325 38.4974 42.6187 38.4974 31.745C38.4974 20.8725 47.3125 12.0575 58.185 12.0575C58.205 12.0575 58.2237 12.0575 58.2425 12.0575V12.0587Z" fill="#FE8B98"/>
</g>
<path fill-rule="evenodd" clip-rule="evenodd" d="M98.415 73.4537H92.79V85.975C92.79 88.3737 90.845 90.3175 88.4475 90.3175H81.2925C79.995 90.3175 78.8338 89.7537 78.0338 88.8462C77.0063 87.6825 75.2288 87.5712 74.065 88.5987C72.9 89.6275 72.7888 91.405 73.8175 92.5687C75.64 94.6337 78.315 95.9425 81.2925 95.9425H88.4475C93.9525 95.9425 98.415 91.48 98.415 85.975V73.4537ZM56.7013 73.4537H82.9525C82.9513 74.1725 82.6775 74.8925 82.1275 75.4412L74.6275 82.9412C73.53 84.04 71.7488 84.04 70.65 82.9412C69.5525 81.8437 69.5525 80.0625 70.65 78.965L73.3488 76.265H59.515C57.9613 76.265 56.7025 75.0062 56.7025 73.4537H56.7013Z" fill="#323A38"/>
</svg>
