<svg width="78" height="84" viewBox="0 0 78 84" fill="none" xmlns="http://www.w3.org/2000/svg">
<path fill-rule="evenodd" clip-rule="evenodd" d="M60.1725 38.9639C57.195 38.9639 54.5188 40.2726 52.6963 42.3376C51.6688 43.5026 51.78 45.2801 52.9438 46.3076C54.1088 47.3351 55.8863 47.2251 56.9138 46.0601C57.7138 45.1539 58.875 44.5889 60.1725 44.5889H67.3275C69.725 44.5889 71.67 46.5339 71.67 48.9326V73.9751C71.67 76.3739 69.725 78.3176 67.3275 78.3176H60.1725C58.875 78.3176 57.7138 77.7539 56.9138 76.8464C55.8863 75.6826 54.1088 75.5714 52.9438 76.5989C51.78 77.6276 51.6688 79.4051 52.6963 80.5689C54.5188 82.6339 57.195 83.9426 60.1725 83.9426H67.3275C72.8325 83.9426 77.295 79.4801 77.295 73.9751V48.9326C77.295 43.4264 72.8325 38.9639 67.3275 38.9639H60.1725ZM53.5075 70.9414L61.0075 63.4414C62.1063 62.3439 62.1063 60.5626 61.0075 59.4651L53.5075 51.9651C52.41 50.8664 50.6288 50.8664 49.53 51.9651C48.4325 53.0626 48.4325 54.8439 49.53 55.9414L52.2288 58.6401H38.395C36.8413 58.6401 35.5825 59.9001 35.5825 61.4526C35.5825 63.0064 36.8413 64.2651 38.395 64.2651H52.2288L49.53 66.9651C48.4325 68.0626 48.4325 69.8439 49.53 70.9414C50.6288 72.0401 52.41 72.0401 53.5075 70.9414Z" fill="#4B5351"/>
<mask id="mask0_2967_2615" style="mask-type:luminance" maskUnits="userSpaceOnUse" x="0" y="0" width="57" height="82">
<path d="M0 0H56.96V81.76H0V0Z" fill="white"/>
</mask>
<g mask="url(#mask0_2967_2615)">
<path fill-rule="evenodd" clip-rule="evenodd" d="M17.3775 19.7451C17.3775 8.87262 26.1925 0.0576172 37.065 0.0576172C47.9387 0.0576172 56.7525 8.87262 56.7525 19.7451C56.7525 30.6189 47.9387 39.4326 37.065 39.4326C26.1925 39.4326 17.3775 30.6189 17.3775 19.7451ZM3.56749 55.8451C16.5875 48.9251 31.2275 46.3376 45.4587 48.0826C44.1087 49.4751 43.3337 51.2201 43.1337 53.0151H38.3937C33.735 53.0151 29.9562 56.7939 29.9562 61.4526C29.9562 66.1126 33.735 69.8901 38.3937 69.8901H43.1337C43.3375 71.7276 44.145 73.5101 45.5525 74.9189C45.95 75.3164 46.3762 75.6651 46.825 75.9664C46.195 77.8039 46.2125 79.8251 46.9012 81.6664H6.83124C3.20624 81.6664 0.268738 78.7276 0.268738 75.1039V61.3339C0.268738 59.0351 1.53749 56.9239 3.56749 55.8451Z" fill="#CF737D"/>
</g>
<mask id="mask1_2967_2615" style="mask-type:luminance" maskUnits="userSpaceOnUse" x="0" y="0" width="38" height="82">
<path d="M0 0H37.44V81.76H0V0Z" fill="white"/>
</mask>
<g mask="url(#mask1_2967_2615)">
<path fill-rule="evenodd" clip-rule="evenodd" d="M37.1225 69.7951V81.6664H6.83002C3.20627 81.6664 0.267517 78.7276 0.267517 75.1039V61.3339C0.267517 59.0351 1.53752 56.9239 3.56752 55.8451C14.055 50.2714 25.5938 47.5089 37.1238 47.5564V53.1114C33.0663 53.7239 29.9563 57.2251 29.9563 61.4526C29.9563 65.6814 33.0663 69.1826 37.1238 69.7951H37.1225ZM37.1225 0.0588672V39.4326C37.1038 39.4326 37.085 39.4326 37.065 39.4326C26.1925 39.4326 17.3775 30.6189 17.3775 19.7451C17.3775 8.87262 26.1925 0.0576172 37.065 0.0576172C37.085 0.0576172 37.1038 0.0576172 37.1225 0.0576172V0.0588672Z" fill="#FE8B98"/>
</g>
<path fill-rule="evenodd" clip-rule="evenodd" d="M77.295 61.4539H71.67V73.9751C71.67 76.3739 69.725 78.3176 67.3275 78.3176H60.1725C58.875 78.3176 57.7137 77.7539 56.9137 76.8464C55.8862 75.6826 54.1087 75.5714 52.945 76.5989C51.78 77.6276 51.6687 79.4051 52.6975 80.5689C54.52 82.6339 57.195 83.9426 60.1725 83.9426H67.3275C72.8325 83.9426 77.295 79.4801 77.295 73.9751V61.4539ZM35.5812 61.4539H61.8325C61.8312 62.1726 61.5575 62.8926 61.0075 63.4414L53.5075 70.9414C52.41 72.0401 50.6287 72.0401 49.53 70.9414C48.4325 69.8439 48.4325 68.0626 49.53 66.9651L52.2287 64.2651H38.395C36.8412 64.2651 35.5825 63.0064 35.5825 61.4539H35.5812Z" fill="#323A38"/>
</svg>
