<svg width="464" height="464" viewBox="0 0 464 464" fill="none" xmlns="http://www.w3.org/2000/svg">
<mask id="mask0_2981_2627" style="mask-type:luminance" maskUnits="userSpaceOnUse" x="0" y="0" width="464" height="464">
<path d="M0 0H464V464H0V0Z" fill="white"/>
</mask>
<g mask="url(#mask0_2981_2627)">
<path d="M463.682 231.844C463.563 359.432 360.573 463.719 231.724 463.641C103.74 463.563 0.0416665 360.261 0.0833332 231.724C0.119792 103.031 104.25 0.0834272 231.922 0.0417606C359.865 9.39072e-05 463.682 103.896 463.682 231.844ZM271.922 282.609C271.922 254.042 271.885 225.516 271.964 196.948C272 186.141 268.151 176.984 260.172 169.875C247.599 158.636 232.984 156.276 217.302 161.818C202.333 167.125 192.313 181.505 192.391 197.776C192.703 254.672 192.547 311.573 192.469 368.469C192.469 400.615 220.016 406.037 233.177 405.995C252.984 405.917 272.432 389.964 272.042 367.057C271.531 338.922 271.922 310.745 271.922 282.609ZM274.635 100.047C274.594 76.3126 255.656 57.4116 231.88 57.4116C208.068 57.4116 189.052 76.4688 189.089 100.281C189.13 123.823 208.344 142.995 231.922 142.995C255.656 142.995 274.635 123.901 274.635 100.047Z" fill="#F5F7F4"/>
</g>
</svg>
