<svg width="100" height="100" viewBox="0 0 100 100" fill="none" xmlns="http://www.w3.org/2000/svg">
<path d="M98.1593 89.508H69.2394V48.529C69.2394 41.3391 67.5512 35.8276 64.1749 31.9946C60.8017 28.1586 55.6804 26.239 48.8095 26.239C46.1576 26.239 43.6253 26.7502 41.2158 27.771C38.8048 28.7888 36.6946 30.1361 34.8867 31.8115C33.0819 33.4885 31.6363 35.4965 30.5528 37.8357C29.4677 40.1718 28.926 42.6575 28.926 45.2942C28.926 51.4069 30.763 56.2897 34.4386 59.9426C38.1127 63.5971 42.7229 65.4236 48.2693 65.4236C50.9213 65.4236 53.3906 65.184 55.6788 64.7034C57.9701 64.2242 60.0803 63.6261 62.0079 62.9089V86.6333C59.2332 88.5498 56.2774 89.8651 53.1435 90.5823C50.0127 91.3025 46.4584 91.6626 42.4804 91.6626C37.0568 91.6626 31.7836 90.5548 26.6608 88.3423C21.541 86.1252 17.0229 83.0108 13.1063 78.9978C9.18977 74.9817 6.02522 70.1889 3.61575 64.6179C1.20474 59.0439 0 52.8427 0 46.0144C0 39.5416 1.20474 33.519 3.61575 27.948C6.02522 22.3785 9.33863 17.5262 13.5544 13.3911C17.7733 9.25751 22.8363 5.99213 28.7418 3.59497C34.6473 1.19934 41.156 0 48.2693 0C55.8599 0 62.7292 1.0498 68.8772 3.14941C75.0237 5.24597 80.2662 8.15124 84.6048 11.8652C88.9419 15.5762 92.286 19.9799 94.6356 25.0732C96.9837 30.1636 98.1593 35.7056 98.1593 41.6992V89.508Z" fill="#323A38"/>
<mask id="mask0_2585_19" style="mask-type:luminance" maskUnits="userSpaceOnUse" x="74" y="26" width="26" height="74">
<path d="M74.9077 26.5198H100V100H74.9077V26.5198Z" fill="white"/>
</mask>
<g mask="url(#mask0_2585_19)">
<path d="M99.8082 43.5134V83.0749C99.8082 87.7563 97.9297 92.1127 94.5089 95.3429C91.3336 98.3444 87.1669 99.9999 82.7853 99.9999H75.0581V97.6913H82.7853C86.5683 97.6913 90.1687 96.2646 92.9174 93.6706C95.8701 90.8798 97.4954 87.1124 97.4954 83.0749V43.5226C97.4954 42.3797 97.3726 41.2704 97.1255 40.2267C95.5755 33.554 89.6853 28.9047 82.7945 28.9047H75.0658V26.5884H82.7945C90.7673 26.5884 97.5859 31.9793 99.3815 39.6957C99.6701 40.9118 99.8082 42.2012 99.8082 43.5134Z" fill="#7EDBEC"/>
</g>
<path d="M74.4749 98.8495V27.7466H75.632V98.8495H74.4749Z" fill="#7EDBEC"/>
<path d="M86.0757 59.729C86.4378 59.729 86.7985 59.7641 87.1546 59.8358C87.5106 59.906 87.8559 60.0098 88.192 60.1486C88.5266 60.2859 88.8458 60.4553 89.1466 60.6567C89.4489 60.8566 89.7282 61.084 89.9845 61.3403C90.2424 61.5952 90.471 61.8729 90.6736 62.1735C90.8747 62.4725 91.045 62.7899 91.1831 63.1241C91.3228 63.4567 91.4271 63.8 91.4993 64.1541C91.5699 64.5081 91.6052 64.8666 91.6052 65.2267C91.6052 65.5884 91.5699 65.9454 91.4993 66.2994C91.4271 66.6534 91.3228 66.9983 91.1831 67.3309C91.045 67.6651 90.8747 67.981 90.6736 68.2816C90.471 68.5822 90.2424 68.8599 89.9845 69.1147C89.7282 69.3695 89.4489 69.5984 89.1466 69.7983C88.8458 69.9997 88.5266 70.1691 88.192 70.3064C87.8559 70.4452 87.5106 70.549 87.1546 70.6192C86.7985 70.6894 86.4378 70.7245 86.0757 70.7245C85.7119 70.7245 85.3528 70.6894 84.9968 70.6192C84.6407 70.549 84.2954 70.4452 83.9593 70.3064C83.6232 70.1691 83.3055 69.9997 83.0032 69.7983C82.7009 69.5984 82.4215 69.3695 82.1652 69.1147C81.909 68.8599 81.6787 68.5822 81.4777 68.2816C81.2767 67.981 81.1063 67.6651 80.9666 67.3309C80.8285 66.9983 80.7226 66.6534 80.652 66.2994C80.5814 65.9454 80.5461 65.5884 80.5461 65.2267C80.5461 64.8666 80.5814 64.5081 80.652 64.1541C80.7226 63.8 80.8285 63.4567 80.9666 63.1241C81.1063 62.7899 81.2767 62.4725 81.4777 62.1735C81.6787 61.8729 81.909 61.5952 82.1652 61.3403C82.4215 61.084 82.7009 60.8566 83.0032 60.6567C83.3055 60.4553 83.6232 60.2859 83.9593 60.1486C84.2954 60.0098 84.6407 59.906 84.9968 59.8358C85.3528 59.7641 85.7119 59.729 86.0757 59.729Z" fill="#7EDBEC"/>
<path d="M86.0757 37.5519C86.2476 37.5519 86.4195 37.5687 86.5898 37.6007C86.7586 37.6343 86.9228 37.6846 87.0824 37.7502C87.2436 37.8159 87.394 37.8967 87.5382 37.9929C87.6825 38.0875 87.8145 38.1958 87.9373 38.3179C88.06 38.4399 88.169 38.5712 88.2657 38.7146C88.3608 38.858 88.4422 39.0091 88.5082 39.1678C88.5742 39.3265 88.6248 39.4897 88.6586 39.6591C88.6923 39.827 88.7092 39.9979 88.7092 40.1688C88.7092 40.3412 88.6923 40.5121 88.6586 40.6799C88.6248 40.8493 88.5742 41.0126 88.5082 41.1713C88.4422 41.33 88.3608 41.481 88.2657 41.6245C88.169 41.7664 88.06 41.8991 87.9373 42.0212C87.8145 42.1432 87.6825 42.2516 87.5382 42.3462C87.394 42.4423 87.2436 42.5232 87.0824 42.5888C86.9228 42.6544 86.7586 42.7032 86.5898 42.7368C86.4195 42.7704 86.2476 42.7872 86.0757 42.7872C85.9023 42.7872 85.7319 42.7704 85.5616 42.7368C85.3927 42.7032 85.227 42.6544 85.0674 42.5888C84.9078 42.5232 84.7558 42.4423 84.6116 42.3462C84.4689 42.2516 84.3353 42.1432 84.2126 42.0212C84.0913 41.8991 83.9824 41.7679 83.8857 41.6245C83.789 41.481 83.7092 41.33 83.6416 41.1713C83.5757 41.0126 83.5265 40.8493 83.4928 40.6799C83.459 40.5121 83.4421 40.3412 83.4421 40.1688C83.4421 39.9979 83.459 39.827 83.4928 39.6591C83.5265 39.4897 83.5757 39.3265 83.6416 39.1678C83.7092 39.0091 83.789 38.858 83.8857 38.7146C83.9824 38.5712 84.0913 38.4399 84.2126 38.3179C84.3353 38.1958 84.4689 38.0875 84.6116 37.9929C84.7558 37.8967 84.9078 37.8159 85.0674 37.7502C85.227 37.6846 85.3927 37.6343 85.5616 37.6007C85.7319 37.5687 85.9023 37.5519 86.0757 37.5519Z" fill="#B3F759"/>
<path d="M86.0757 48.1232C86.2476 48.1232 86.4195 48.1384 86.5898 48.172C86.7586 48.2056 86.9228 48.2559 87.0824 48.3215C87.2436 48.3871 87.394 48.468 87.5382 48.5641C87.6825 48.6588 87.8145 48.7671 87.9373 48.8892C88.06 49.0112 88.169 49.1425 88.2657 49.2859C88.3608 49.4293 88.4422 49.5804 88.5082 49.7391C88.5742 49.8978 88.6248 50.061 88.6586 50.2304C88.6923 50.3983 88.7092 50.5692 88.7092 50.7401C88.7092 50.9125 88.6923 51.0834 88.6586 51.2512C88.6248 51.4206 88.5742 51.5839 88.5082 51.7426C88.4422 51.9012 88.3608 52.0523 88.2657 52.1957C88.169 52.3376 88.06 52.4704 87.9373 52.5925C87.8145 52.713 87.6825 52.8229 87.5382 52.9175C87.394 53.0136 87.2436 53.0945 87.0824 53.1601C86.9228 53.2257 86.7586 53.2745 86.5898 53.3081C86.4195 53.3417 86.2476 53.3585 86.0757 53.3585C85.9023 53.3585 85.7319 53.3417 85.5616 53.3081C85.3927 53.2745 85.227 53.2257 85.0674 53.1601C84.9078 53.0945 84.7558 53.0136 84.6116 52.9175C84.4689 52.8229 84.3353 52.713 84.2126 52.5925C84.0913 52.4704 83.9824 52.3376 83.8857 52.1957C83.789 52.0523 83.7092 51.9012 83.6416 51.7426C83.5757 51.5839 83.5265 51.4206 83.4928 51.2512C83.459 51.0834 83.4421 50.9125 83.4421 50.7401C83.4421 50.5692 83.459 50.3983 83.4928 50.2304C83.5265 50.061 83.5757 49.8978 83.6416 49.7391C83.7092 49.5804 83.789 49.4293 83.8857 49.2859C83.9824 49.1425 84.0913 49.0112 84.2126 48.8892C84.3353 48.7671 84.4689 48.6588 84.6116 48.5641C84.7558 48.468 84.9078 48.3871 85.0674 48.3215C85.227 48.2559 85.3927 48.2056 85.5616 48.172C85.7319 48.1384 85.9023 48.1232 86.0757 48.1232Z" fill="#B3F759"/>
<path d="M91.6052 42.8772C91.7771 42.8772 91.949 42.894 92.1193 42.9276C92.2882 42.9611 92.4524 43.0115 92.612 43.0771C92.7731 43.1427 92.9235 43.2236 93.0678 43.3182C93.212 43.4143 93.344 43.5226 93.4668 43.6447C93.5896 43.7668 93.6985 43.898 93.7952 44.0414C93.8904 44.1849 93.9717 44.3344 94.0377 44.4946C94.1037 44.6533 94.1544 44.8166 94.1881 44.9844C94.2219 45.1538 94.2388 45.3247 94.2388 45.4956C94.2388 45.668 94.2219 45.8374 94.1881 46.0068C94.1544 46.1746 94.1037 46.3394 94.0377 46.4981C93.9717 46.6568 93.8904 46.8079 93.7952 46.9513C93.6985 47.0932 93.5896 47.226 93.4668 47.348C93.344 47.4686 93.212 47.5769 93.0678 47.673C92.9235 47.7692 92.7731 47.8485 92.612 47.9156C92.4524 47.9813 92.2882 48.0301 92.1193 48.0637C91.949 48.0972 91.7771 48.114 91.6052 48.114C91.4318 48.114 91.2599 48.0972 91.0911 48.0637C90.9207 48.0301 90.7565 47.9813 90.5969 47.9156C90.4373 47.8485 90.2854 47.7692 90.1411 47.673C89.9984 47.5769 89.8649 47.4686 89.7421 47.348C89.6209 47.226 89.5119 47.0932 89.4152 46.9513C89.3185 46.8079 89.2387 46.6568 89.1712 46.4981C89.1052 46.3394 89.0561 46.1746 89.0223 46.0068C88.9886 45.8374 88.9717 45.668 88.9717 45.4956C88.9717 45.3247 88.9886 45.1538 89.0223 44.9844C89.0561 44.8166 89.1052 44.6533 89.1712 44.4946C89.2387 44.3344 89.3185 44.1849 89.4152 44.0414C89.5119 43.898 89.6209 43.7668 89.7421 43.6447C89.8649 43.5226 89.9984 43.4143 90.1411 43.3182C90.2854 43.2236 90.4373 43.1427 90.5969 43.0771C90.7565 43.0115 90.9207 42.9611 91.0911 42.9276C91.2599 42.894 91.4318 42.8772 91.6052 42.8772Z" fill="#FE8C9A"/>
<path d="M80.5461 42.8772C80.718 42.8772 80.8899 42.894 81.0603 42.9276C81.2291 42.9611 81.3933 43.0115 81.5529 43.0771C81.714 43.1427 81.8644 43.2236 82.0087 43.3182C82.153 43.4143 82.285 43.5226 82.4077 43.6447C82.5305 43.7668 82.6395 43.898 82.7362 44.0414C82.8313 44.1849 82.9126 44.3344 82.9786 44.4946C83.0446 44.6533 83.0953 44.8166 83.129 44.9844C83.1628 45.1538 83.1797 45.3247 83.1797 45.4956C83.1797 45.668 83.1628 45.8374 83.129 46.0068C83.0953 46.1746 83.0446 46.3394 82.9786 46.4981C82.9126 46.6568 82.8313 46.8079 82.7362 46.9513C82.6395 47.0932 82.5305 47.226 82.4077 47.348C82.285 47.4686 82.153 47.5769 82.0087 47.673C81.8644 47.7692 81.714 47.8485 81.5529 47.9156C81.3933 47.9813 81.2291 48.0301 81.0603 48.0637C80.8899 48.0972 80.718 48.114 80.5461 48.114C80.3727 48.114 80.2024 48.0972 80.032 48.0637C79.8632 48.0301 79.6975 47.9813 79.5378 47.9156C79.3782 47.8485 79.2263 47.7692 79.082 47.673C78.9393 47.5769 78.8058 47.4686 78.683 47.348C78.5618 47.226 78.4528 47.0932 78.3561 46.9513C78.2594 46.8079 78.1796 46.6568 78.1121 46.4981C78.0461 46.3394 77.997 46.1746 77.9632 46.0068C77.9295 45.8374 77.9126 45.668 77.9126 45.4956C77.9126 45.3247 77.9295 45.1538 77.9632 44.9844C77.997 44.8166 78.0461 44.6533 78.1121 44.4946C78.1796 44.3344 78.2594 44.1849 78.3561 44.0414C78.4528 43.898 78.5618 43.7668 78.683 43.6447C78.8058 43.5226 78.9393 43.4143 79.082 43.3182C79.2263 43.2236 79.3782 43.1427 79.5378 43.0771C79.6975 43.0115 79.8632 42.9611 80.032 42.9276C80.2024 42.894 80.3727 42.8772 80.5461 42.8772Z" fill="#FE8C9A"/>
<path d="M80.9406 35.0281H76.9535V33.9188H80.9406V35.0281Z" fill="#7EDBEC"/>
<path d="M78.3884 36.4502V32.486H79.5042V36.4502H78.3884Z" fill="#7EDBEC"/>
<path d="M82.1622 75.5463C82.3602 75.5463 82.5582 75.5646 82.7531 75.6042C82.948 75.6424 83.1368 75.6989 83.3209 75.7751C83.5036 75.8499 83.6785 75.943 83.8443 76.0529C84.0085 76.1627 84.1619 76.2878 84.3031 76.4267C84.4428 76.5671 84.5686 76.7197 84.6791 76.8829C84.7896 77.0477 84.8833 77.2217 84.9585 77.4033C85.0352 77.5864 85.092 77.774 85.1319 77.9678C85.1702 78.1616 85.1887 78.3585 85.1887 78.5553C85.1887 78.7537 85.1702 78.949 85.1319 79.1428C85.092 79.3365 85.0352 79.5242 84.9585 79.7073C84.8833 79.8904 84.7896 80.0629 84.6791 80.2277C84.5686 80.3925 84.4428 80.5435 84.3031 80.6839C84.1619 80.8243 84.0085 80.9479 83.8443 81.0577C83.6785 81.1676 83.5036 81.2607 83.3209 81.337C83.1368 81.4117 82.948 81.4697 82.7531 81.5079C82.5582 81.546 82.3602 81.5659 82.1622 81.5659C81.9627 81.5659 81.7663 81.546 81.5714 81.5079C81.3765 81.4697 81.1877 81.4117 81.0035 81.337C80.8194 81.2607 80.646 81.1676 80.4802 81.0577C80.3145 80.9479 80.1625 80.8243 80.0213 80.6839C79.8817 80.5435 79.7558 80.3925 79.6453 80.2277C79.5348 80.0629 79.4412 79.8904 79.3645 79.7073C79.2893 79.5242 79.2325 79.3365 79.1926 79.1428C79.1542 78.949 79.1343 78.7537 79.1343 78.5553C79.1343 78.3585 79.1542 78.1616 79.1926 77.9678C79.2325 77.774 79.2893 77.5864 79.3645 77.4033C79.4412 77.2217 79.5348 77.0477 79.6453 76.8829C79.7558 76.7197 79.8817 76.5671 80.0213 76.4267C80.1625 76.2878 80.3145 76.1627 80.4802 76.0529C80.646 75.943 80.8194 75.8499 81.0035 75.7751C81.1877 75.6989 81.3765 75.6424 81.5714 75.6042C81.7663 75.5646 81.9627 75.5463 82.1622 75.5463Z" fill="#7EDBEC"/>
<mask id="mask1_2585_19" style="mask-type:luminance" maskUnits="userSpaceOnUse" x="65" y="26" width="11" height="74">
<path d="M65.5245 26.5198H75.3006V100H65.5245V26.5198Z" fill="white"/>
</mask>
<g mask="url(#mask1_2585_19)">
<path d="M75.058 26.5884V28.897C71.2013 28.897 68.0675 32.0129 68.0675 35.8459V90.7333C68.0675 94.5678 71.2013 97.6836 75.058 97.6836V99.9999C69.9214 99.9999 65.7455 95.848 65.7455 90.7424V35.855C65.7455 30.7403 69.9214 26.5884 75.058 26.5884Z" fill="#7EDBEC"/>
</g>
</svg>
